<svg width="101" height="87" viewBox="0 0 101 87" fill="none" xmlns="http://www.w3.org/2000/svg">
<rect x="87.6401" width="1.06878" height="86.037" fill="url(#paint0_linear_101_122)" fill-opacity="0.4"/>
<rect x="66.7988" width="1.06878" height="86.037" fill="url(#paint1_linear_101_122)" fill-opacity="0.4"/>
<rect x="29.9259" width="1.06878" height="86.037" fill="url(#paint2_linear_101_122)" fill-opacity="0.4"/>
<rect x="9.61914" width="1.06878" height="86.037" fill="url(#paint3_linear_101_122)" fill-opacity="0.4"/>
<rect y="12.8254" width="1.06878" height="96.1905" transform="rotate(-90 0 12.8254)" fill="url(#paint4_linear_101_122)" fill-opacity="0.4"/>
<rect y="71.6084" width="1.06878" height="101" transform="rotate(-90 0 71.6084)" fill="url(#paint5_linear_101_122)" fill-opacity="0.4"/>
<mask id="path-7-outside-1_101_122" maskUnits="userSpaceOnUse" x="8.4126" y="11.4126" width="81" height="60" fill="black">
<rect fill="white" x="8.4126" y="11.4126" width="81" height="60"/>
<path d="M41.5326 30.6126C48.3593 30.6126 53.6926 32.1593 57.5326 35.2526C61.4259 38.2926 63.3726 42.9059 63.3726 49.0926C63.3726 55.7593 61.1859 60.8259 56.8126 64.2926C52.4393 67.7059 46.5459 69.4126 39.1326 69.4126H11.3726V13.4126H29.9326V30.6126H41.5326ZM37.8526 56.2126C39.7193 56.2126 41.2659 55.6259 42.4926 54.4526C43.7726 53.2259 44.4126 51.5459 44.4126 49.4126C44.4126 47.2793 43.7726 45.8126 42.4926 45.0126C41.2659 44.2126 39.7193 43.8126 37.8526 43.8126H29.9326V56.2126H37.8526ZM68.4926 69.4126V13.4126H87.0526V69.4126H68.4926Z"/>
</mask>
<path d="M57.5326 35.2526L56.2779 36.8101L56.2898 36.8196L56.3017 36.829L57.5326 35.2526ZM56.8126 64.2926L58.0431 65.8692L58.0491 65.8646L58.055 65.8599L56.8126 64.2926ZM11.3726 69.4126H9.3726V71.4126H11.3726V69.4126ZM11.3726 13.4126V11.4126H9.3726V13.4126H11.3726ZM29.9326 13.4126H31.9326V11.4126H29.9326V13.4126ZM29.9326 30.6126H27.9326V32.6126H29.9326V30.6126ZM42.4926 54.4526L43.875 55.8979L43.8764 55.8966L42.4926 54.4526ZM42.4926 45.0126L41.4001 46.6878L41.4162 46.6984L41.4326 46.7086L42.4926 45.0126ZM29.9326 43.8126V41.8126H27.9326V43.8126H29.9326ZM29.9326 56.2126H27.9326V58.2126H29.9326V56.2126ZM68.4926 69.4126H66.4926V71.4126H68.4926V69.4126ZM68.4926 13.4126V11.4126H66.4926V13.4126H68.4926ZM87.0526 13.4126H89.0526V11.4126H87.0526V13.4126ZM87.0526 69.4126V71.4126H89.0526V69.4126H87.0526ZM41.5326 32.6126C48.0763 32.6126 52.9084 34.0957 56.2779 36.8101L58.7873 33.6951C54.4768 30.2228 48.6423 28.6126 41.5326 28.6126V32.6126ZM56.3017 36.829C59.5891 39.3958 61.3726 43.3507 61.3726 49.0926H65.3726C65.3726 42.4612 63.2628 37.1894 58.7635 33.6762L56.3017 36.829ZM61.3726 49.0926C61.3726 55.281 59.37 59.7133 55.5702 62.7253L58.055 65.8599C63.0019 61.9386 65.3726 56.2375 65.3726 49.0926H61.3726ZM55.5821 62.716C51.6623 65.7753 46.2495 67.4126 39.1326 67.4126V71.4126C46.8423 71.4126 53.2162 69.6366 58.0431 65.8692L55.5821 62.716ZM39.1326 67.4126H11.3726V71.4126H39.1326V67.4126ZM13.3726 69.4126V13.4126H9.3726V69.4126H13.3726ZM11.3726 15.4126H29.9326V11.4126H11.3726V15.4126ZM27.9326 13.4126V30.6126H31.9326V13.4126H27.9326ZM29.9326 32.6126H41.5326V28.6126H29.9326V32.6126ZM37.8526 58.2126C40.1783 58.2126 42.2376 57.4642 43.875 55.8979L41.1102 53.0073C40.2943 53.7877 39.2602 54.2126 37.8526 54.2126V58.2126ZM43.8764 55.8966C45.6286 54.2174 46.4126 51.9718 46.4126 49.4126H42.4126C42.4126 51.1201 41.9166 52.2345 41.1088 53.0086L43.8764 55.8966ZM46.4126 49.4126C46.4126 46.9024 45.6408 44.6217 43.5526 43.3166L41.4326 46.7086C41.9044 47.0035 42.4126 47.6561 42.4126 49.4126H46.4126ZM43.5851 43.3374C41.955 42.2742 40.0014 41.8126 37.8526 41.8126V45.8126C39.4371 45.8126 40.5769 46.151 41.4001 46.6878L43.5851 43.3374ZM37.8526 41.8126H29.9326V45.8126H37.8526V41.8126ZM27.9326 43.8126V56.2126H31.9326V43.8126H27.9326ZM29.9326 58.2126H37.8526V54.2126H29.9326V58.2126ZM70.4926 69.4126V13.4126H66.4926V69.4126H70.4926ZM68.4926 15.4126H87.0526V11.4126H68.4926V15.4126ZM85.0526 13.4126V69.4126H89.0526V13.4126H85.0526ZM87.0526 67.4126H68.4926V71.4126H87.0526V67.4126Z" fill="white" fill-opacity="0.5" mask="url(#path-7-outside-1_101_122)"/>
<circle cx="9" cy="12.0371" r="2" fill="#D9D9D9"/>
<circle cx="32" cy="12.0371" r="2" fill="#D9D9D9"/>
<circle cx="31" cy="45.0371" r="2" fill="#D9D9D9"/>
<circle cx="67" cy="12.0371" r="2" fill="#D9D9D9"/>
<circle cx="89" cy="12.0371" r="2" fill="#D9D9D9"/>
<circle cx="89" cy="71.0371" r="2" fill="#D9D9D9"/>
<circle cx="67" cy="71.0371" r="2" fill="#D9D9D9"/>
<circle cx="31" cy="55.0371" r="2" fill="#D9D9D9"/>
<circle cx="31" cy="71.0371" r="2" fill="#D9D9D9"/>
<circle cx="10" cy="71.0371" r="2" fill="#D9D9D9"/>
<line y1="-1" x2="8.44947" y2="-1" transform="matrix(-0.822192 0.56921 0.56921 0.822192 17.3352 13.2903)" stroke="white" stroke-opacity="0.2" stroke-width="2"/>
<line x1="28.6139" y1="12.8265" x2="10.6139" y2="26.8265" stroke="white" stroke-opacity="0.2" stroke-width="2"/>
<path d="M31.3522 18.1814L10.3283 33.1103" stroke="white" stroke-opacity="0.2" stroke-width="2"/>
<line y1="-1" x2="8.44947" y2="-1" transform="matrix(-0.822192 0.56921 0.56921 0.822192 74.5151 13.2903)" stroke="white" stroke-opacity="0.2" stroke-width="2"/>
<line x1="84.5016" y1="13.0894" x2="67.6022" y2="25.8355" stroke="white" stroke-opacity="0.2" stroke-width="2"/>
<path d="M88.5316 18.1814L67.5078 33.1103" stroke="white" stroke-opacity="0.2" stroke-width="2"/>
<path d="M88.5316 26.1973L67.5078 41.1261" stroke="white" stroke-opacity="0.2" stroke-width="2"/>
<path d="M88.5316 33.6787L67.5078 48.6076" stroke="white" stroke-opacity="0.2" stroke-width="2"/>
<path d="M88.5316 41.1604L67.5078 56.0893" stroke="white" stroke-opacity="0.2" stroke-width="2"/>
<path d="M88.5316 49.1763L67.5078 64.1051" stroke="white" stroke-opacity="0.2" stroke-width="2"/>
<path d="M88.5316 56.6577L67.5078 71.5866" stroke="white" stroke-opacity="0.2" stroke-width="2"/>
<path d="M88.5316 64.1392L80.1242 70.3336" stroke="white" stroke-opacity="0.2" stroke-width="2"/>
<path d="M31.3522 26.1973L10.3283 41.1261" stroke="white" stroke-opacity="0.2" stroke-width="2"/>
<path d="M36.5957 30.0486L10.3283 48.6077" stroke="white" stroke-opacity="0.2" stroke-width="2"/>
<path d="M46.149 29.7549L10.863 54.5576" stroke="white" stroke-opacity="0.2" stroke-width="2"/>
<path d="M30.2943 49.2812L10.8627 63.1078" stroke="white" stroke-opacity="0.2" stroke-width="2"/>
<path d="M54.5488 32.49L37.9671 44.3436" stroke="white" stroke-opacity="0.2" stroke-width="2"/>
<path d="M35.02 55.6289L14.0719 70.5054" stroke="white" stroke-opacity="0.2" stroke-width="2"/>
<path d="M63.4044 43.3772L24.7596 70.5052" stroke="white" stroke-opacity="0.2" stroke-width="2"/>
<path d="M64.3695 50.1086L35.4476 70.5054" stroke="white" stroke-opacity="0.2" stroke-width="2"/>
<path d="M61.8307 59.2656L48.0312 69.193" stroke="white" stroke-opacity="0.2" stroke-width="2"/>
<path d="M61.1218 37.5583L43.7785 49.9392" stroke="white" stroke-opacity="0.2" stroke-width="2"/>
<path d="M80.6932 16.687L82.7529 16.1921C84.5798 15.7531 86.2998 14.951 87.8104 13.8337L88.1144 13.6088C88.9436 12.9955 89.6847 12.2712 90.3168 11.4563V11.4563C91.2937 10.1971 91.9923 8.74494 92.3665 7.19577L92.8139 5.3438" stroke="white"/>
<defs>
<linearGradient id="paint0_linear_101_122" x1="88.1745" y1="0" x2="88.1745" y2="86.037" gradientUnits="userSpaceOnUse">
<stop stop-color="white"/>
<stop offset="1" stop-color="white"/>
</linearGradient>
<linearGradient id="paint1_linear_101_122" x1="67.3332" y1="0" x2="67.3332" y2="86.037" gradientUnits="userSpaceOnUse">
<stop stop-color="white"/>
<stop offset="1" stop-color="white"/>
</linearGradient>
<linearGradient id="paint2_linear_101_122" x1="30.4603" y1="0" x2="30.4603" y2="86.037" gradientUnits="userSpaceOnUse">
<stop stop-color="white"/>
<stop offset="1" stop-color="white"/>
</linearGradient>
<linearGradient id="paint3_linear_101_122" x1="10.1535" y1="0" x2="10.1535" y2="86.037" gradientUnits="userSpaceOnUse">
<stop stop-color="white"/>
<stop offset="1" stop-color="white"/>
</linearGradient>
<linearGradient id="paint4_linear_101_122" x1="0.534392" y1="12.8254" x2="0.534392" y2="109.016" gradientUnits="userSpaceOnUse">
<stop stop-color="white"/>
<stop offset="1" stop-color="white" stop-opacity="0.961141"/>
</linearGradient>
<linearGradient id="paint5_linear_101_122" x1="0.534392" y1="71.6084" x2="0.534392" y2="172.608" gradientUnits="userSpaceOnUse">
<stop stop-color="white"/>
<stop offset="1" stop-color="white" stop-opacity="0.961141"/>
</linearGradient>
</defs>
</svg>
