<svg width="208" height="161" viewBox="0 0 208 161" fill="none" xmlns="http://www.w3.org/2000/svg">
<rect x="164" width="2" height="161" fill="url(#paint0_linear_101_297)" fill-opacity="0.1"/>
<rect x="127" width="2" height="161" fill="url(#paint1_linear_101_297)" fill-opacity="0.1"/>
<rect x="94" width="2" height="161" fill="url(#paint2_linear_101_297)" fill-opacity="0.1"/>
<rect x="57" width="2" height="161" fill="url(#paint3_linear_101_297)" fill-opacity="0.1"/>
<rect x="28" y="27" width="2" height="180" transform="rotate(-90 28 27)" fill="url(#paint4_linear_101_297)" fill-opacity="0.1"/>
<rect y="134" width="2" height="189" transform="rotate(-90 0 134)" fill="url(#paint5_linear_101_297)" fill-opacity="0.1"/>
<mask id="path-7-outside-1_101_297" maskUnits="userSpaceOnUse" x="56" y="24" width="111" height="111" fill="black">
<rect fill="white" x="56" y="24" width="111" height="111"/>
<path d="M59.3 132V27H94.1V81.6L130.25 27H163.55V132H128.75V77.55L92.75 132H59.3Z"/>
</mask>
<path d="M59.3 132H56.3V135H59.3V132ZM59.3 27V24H56.3V27H59.3ZM94.1 27H97.1V24H94.1V27ZM94.1 81.6H91.1V91.5654L96.6014 83.2562L94.1 81.6ZM130.25 27V24H128.638L127.749 25.3438L130.25 27ZM163.55 27H166.55V24H163.55V27ZM163.55 132V135H166.55V132H163.55ZM128.75 132H125.75V135H128.75V132ZM128.75 77.55H131.75V67.5729L126.248 75.8955L128.75 77.55ZM92.75 132V135H94.3629L95.2525 133.655L92.75 132ZM62.3 132V27H56.3V132H62.3ZM59.3 30H94.1V24H59.3V30ZM91.1 27V81.6H97.1V27H91.1ZM96.6014 83.2562L132.751 28.6562L127.749 25.3438L91.5986 79.9438L96.6014 83.2562ZM130.25 30H163.55V24H130.25V30ZM160.55 27V132H166.55V27H160.55ZM163.55 129H128.75V135H163.55V129ZM131.75 132V77.55H125.75V132H131.75ZM126.248 75.8955L90.2475 130.345L95.2525 133.655L131.253 79.2045L126.248 75.8955ZM92.75 129H59.3V135H92.75V129Z" fill="white" fill-opacity="0.5" mask="url(#path-7-outside-1_101_297)"/>
<circle cx="58" cy="26" r="3" fill="#D9D9D9"/>
<circle cx="95" cy="26" r="3" fill="#D9D9D9"/>
<circle cx="95" cy="79" r="3" fill="#D9D9D9"/>
<circle cx="129" cy="26" r="3" fill="#D9D9D9"/>
<circle cx="165" cy="26" r="3" fill="#D9D9D9"/>
<circle cx="165" cy="133" r="3" fill="#D9D9D9"/>
<circle cx="128" cy="133" r="3" fill="#D9D9D9"/>
<circle cx="128" cy="80" r="3" fill="#D9D9D9"/>
<circle cx="95" cy="133" r="3" fill="#D9D9D9"/>
<circle cx="58" cy="133" r="3" fill="#D9D9D9"/>
<line y1="-1" x2="15.8114" y2="-1" transform="matrix(-0.822192 0.56921 0.56921 0.822192 70.4395 26.8701)" stroke="white" stroke-opacity="0.2" stroke-width="2"/>
<line x1="88.6282" y1="25.778" x2="59.0677" y2="49.6481" stroke="white" stroke-opacity="0.2" stroke-width="2"/>
<path d="M96.6689 36.0227L57.3273 63.9589" stroke="white" stroke-opacity="0.2" stroke-width="2"/>
<path d="M96.6689 51.0227L57.3273 78.9589" stroke="white" stroke-opacity="0.2" stroke-width="2"/>
<path d="M96.6689 65.0227L57.3273 92.9589" stroke="white" stroke-opacity="0.2" stroke-width="2"/>
<path d="M153.648 25.5757L109.709 56.695" stroke="white" stroke-opacity="0.2" stroke-width="2"/>
<path d="M164.784 35.866L57.3273 110.959" stroke="white" stroke-opacity="0.2" stroke-width="2"/>
<path d="M164.784 51.866L57.3273 126.959" stroke="white" stroke-opacity="0.2" stroke-width="2"/>
<path d="M109.693 108.006L73.1411 134.011" stroke="white" stroke-opacity="0.2" stroke-width="2"/>
<path d="M165.079 69.662L128.039 96.0051" stroke="white" stroke-opacity="0.2" stroke-width="2"/>
<path d="M165.079 86.662L128.039 113.005" stroke="white" stroke-opacity="0.2" stroke-width="2"/>
<path d="M165.079 106.662L128.039 133.005" stroke="white" stroke-opacity="0.2" stroke-width="2"/>
<path d="M150.337 33.2306L154.192 32.3044C157.61 31.4829 160.829 29.9821 163.656 27.8912L164.225 27.4704C165.776 26.3227 167.163 24.9674 168.346 23.4425V23.4425C170.174 21.0861 171.481 18.3687 172.181 15.4698L173.019 12.0042" stroke="white"/>
<defs>
<linearGradient id="paint0_linear_101_297" x1="165" y1="0" x2="165" y2="161" gradientUnits="userSpaceOnUse">
<stop stop-color="#D9D9D9"/>
<stop offset="1" stop-color="#D9D9D9" stop-opacity="0.961141"/>
</linearGradient>
<linearGradient id="paint1_linear_101_297" x1="128" y1="0" x2="128" y2="161" gradientUnits="userSpaceOnUse">
<stop stop-color="#D9D9D9"/>
<stop offset="1" stop-color="#D9D9D9" stop-opacity="0.961141"/>
</linearGradient>
<linearGradient id="paint2_linear_101_297" x1="95" y1="0" x2="95" y2="161" gradientUnits="userSpaceOnUse">
<stop stop-color="#D9D9D9"/>
<stop offset="1" stop-color="#D9D9D9" stop-opacity="0.961141"/>
</linearGradient>
<linearGradient id="paint3_linear_101_297" x1="58" y1="0" x2="58" y2="161" gradientUnits="userSpaceOnUse">
<stop stop-color="#D9D9D9"/>
<stop offset="1" stop-color="#D9D9D9" stop-opacity="0.961141"/>
</linearGradient>
<linearGradient id="paint4_linear_101_297" x1="29" y1="27" x2="29" y2="207" gradientUnits="userSpaceOnUse">
<stop stop-color="#D9D9D9"/>
<stop offset="1" stop-color="#D9D9D9" stop-opacity="0.961141"/>
</linearGradient>
<linearGradient id="paint5_linear_101_297" x1="1" y1="134" x2="1" y2="323" gradientUnits="userSpaceOnUse">
<stop stop-color="#D9D9D9"/>
<stop offset="1" stop-color="#D9D9D9" stop-opacity="0.961141"/>
</linearGradient>
</defs>
</svg>
