<svg width="183" height="57" viewBox="0 0 183 57" fill="none" xmlns="http://www.w3.org/2000/svg">
<path d="M60.8105 33.24C60.5438 33.24 60.2571 33.22 59.9505 33.18C59.6571 33.14 59.3438 33.08 59.0105 33L59.2305 29.76C59.4171 29.8 59.5971 29.82 59.7705 29.82C60.3171 29.82 60.7305 29.6067 61.0105 29.18C61.2905 28.74 61.4838 28.1267 61.5905 27.34C61.7105 26.5533 61.7838 25.6333 61.8105 24.58L62.0105 19H73.2905V33H69.3905V21.26L70.2505 22.14H64.5905L65.3905 21.22L65.2905 24.42C65.2505 25.78 65.1571 27.0067 65.0105 28.1C64.8638 29.18 64.6305 30.1067 64.3105 30.88C63.9905 31.64 63.5438 32.2267 62.9705 32.64C62.4105 33.04 61.6905 33.24 60.8105 33.24ZM79.9252 24.42H86.4252V27.38H79.9252V24.42ZM80.2052 29.94H87.5252V33H76.2852V19H87.2652V22.06H80.2052V29.94ZM99.1413 19H103.101V33H99.1413V19ZM93.7413 33H89.7813V19H93.7413V33ZM99.4213 27.54H93.4613V24.26H99.4213V27.54ZM115.31 31.28V22.14H111.29L111.23 23.66C111.204 24.4733 111.15 25.2333 111.07 25.94C111.004 26.6467 110.904 27.2933 110.77 27.88C110.65 28.4667 110.484 28.9733 110.27 29.4C110.07 29.8133 109.824 30.1333 109.53 30.36L105.31 29.86C105.777 29.8733 106.157 29.72 106.45 29.4C106.757 29.0667 106.997 28.6067 107.17 28.02C107.357 27.4333 107.49 26.74 107.57 25.94C107.664 25.14 107.73 24.2667 107.77 23.32L107.93 19H119.21V31.28H115.31ZM104.89 35.82V29.86H121.11V35.82H117.49V33H108.53V35.82H104.89ZM123.004 33V19H126.904V27.22L132.684 19H136.404V33H132.504V24.8L126.744 33H123.004ZM148.77 19H152.73V33H148.77V19ZM143.37 33H139.41V19H143.37V33ZM149.05 27.54H143.09V24.26H149.05V27.54ZM155.738 33V19H165.998L165.978 22.14H158.758L159.638 21.26V33H155.738ZM60.5332 51V37H63.7932L69.5732 46.52H67.8532L73.5132 37H76.7732L76.8132 51H73.1532L73.1332 42.54H73.7532L69.5332 49.62H67.7732L63.4332 42.54H64.1732V51H60.5332ZM78.391 51L84.571 37H88.471L94.671 51H90.551L85.711 38.94H87.271L82.431 51H78.391ZM81.771 48.28L82.791 45.36H89.631L90.651 48.28H81.771ZM104.695 47.86L103.835 48.74V37H107.735V48.74L106.835 47.86H112.255L111.355 48.74V37H115.255V51H96.2754V37H100.175V48.74L99.3154 47.86H104.695ZM118.248 51V37H122.148V45.22L127.928 37H131.648V51H127.748V42.8L121.988 51H118.248ZM144.014 37H147.974V51H144.014V37ZM138.614 51H134.654V37H138.614V51ZM144.294 45.54H138.334V42.26H144.294V45.54ZM149.582 51L155.762 37H159.662L165.862 51H161.742L156.902 38.94H158.462L153.622 51H149.582ZM152.962 48.28L153.982 45.36H160.822L161.842 48.28H152.962Z" fill="white"/>
<circle cx="27.5" cy="24.3" r="5.5" fill="#06FF79"/>
<path d="M2.50569 25.7645L32.0376 48.3694L44.1908 16.7712" stroke="white" stroke-width="5"/>
<circle cx="5.5" cy="45.3" r="5.5" fill="white"/>
</svg>
